<svg width="436" height="436" viewBox="0 0 436 436" fill="none" xmlns="http://www.w3.org/2000/svg">
<circle cx="218" cy="218" r="218" fill="white"/>
<circle cx="219" cy="217" r="179" fill="#6267E0"/>
<path d="M73.472 258.672C71.1253 258.672 68.9253 258.349 66.872 257.704C64.8187 257.059 63 256.267 61.416 255.328C59.832 254.331 58.5707 253.333 57.632 252.336C57.2213 251.867 57.016 251.309 57.016 250.664C57.0747 249.96 57.4853 249.197 58.248 248.376C58.8933 247.731 59.48 247.349 60.008 247.232C60.536 247.115 61.1227 247.291 61.768 247.76C63.9387 249.403 65.992 250.635 67.928 251.456C69.9227 252.219 71.8293 252.6 73.648 252.6C75.408 252.6 76.9627 252.336 78.312 251.808C79.6613 251.221 80.7173 250.371 81.48 249.256C82.3013 248.141 82.712 246.821 82.712 245.296C82.712 243.419 82.1547 241.981 81.04 240.984C79.9253 239.928 78.488 239.136 76.728 238.608C75.0267 238.021 73.208 237.464 71.272 236.936C69.336 236.349 67.488 235.616 65.728 234.736C64.0267 233.797 62.6187 232.507 61.504 230.864C60.3893 229.221 59.832 226.992 59.832 224.176C59.832 221.712 60.448 219.512 61.68 217.576C62.9707 215.64 64.7307 214.115 66.96 213C69.248 211.885 71.8587 211.328 74.792 211.328C77.1387 211.328 79.2213 211.592 81.04 212.12C82.9173 212.589 84.5307 213.235 85.88 214.056C87.288 214.819 88.432 215.669 89.312 216.608C89.9573 217.253 90.2213 217.899 90.104 218.544C90.0453 219.131 89.6933 219.776 89.048 220.48C88.4027 221.243 87.7573 221.683 87.112 221.8C86.5253 221.859 85.8507 221.624 85.088 221.096C83.4453 219.923 81.8027 219.013 80.16 218.368C78.5173 217.723 76.6987 217.4 74.704 217.4C72.592 217.4 70.832 217.928 69.424 218.984C68.0747 219.981 67.4 221.419 67.4 223.296C67.4 225.056 67.928 226.435 68.984 227.432C70.0987 228.371 71.5067 229.163 73.208 229.808C74.968 230.395 76.816 230.981 78.752 231.568C80.7467 232.155 82.5947 232.917 84.296 233.856C86.056 234.795 87.464 236.085 88.52 237.728C89.6347 239.312 90.192 241.453 90.192 244.152C90.192 246.675 89.576 249.051 88.344 251.28C87.1707 253.509 85.352 255.299 82.888 256.648C80.424 257.997 77.2853 258.672 73.472 258.672ZM119.495 258.672C115.564 258.672 112.044 257.645 108.935 255.592C105.884 253.539 103.479 250.752 101.719 247.232C99.9586 243.653 99.0786 239.576 99.0786 235C99.0786 231.539 99.5773 228.371 100.575 225.496C101.572 222.621 102.98 220.128 104.799 218.016C106.676 215.904 108.847 214.261 111.311 213.088C113.775 211.915 116.503 211.328 119.495 211.328C123.425 211.328 126.916 212.355 129.967 214.408C133.017 216.403 135.423 219.189 137.183 222.768C138.943 226.347 139.823 230.424 139.823 235C139.823 237.757 139.5 240.339 138.855 242.744C138.209 245.149 137.271 247.32 136.039 249.256C134.865 251.192 133.428 252.864 131.727 254.272C130.084 255.68 128.207 256.765 126.095 257.528C124.041 258.291 121.841 258.672 119.495 258.672ZM119.495 251.632C121.431 251.632 123.161 251.251 124.687 250.488C126.271 249.725 127.591 248.611 128.647 247.144C129.761 245.677 130.612 243.917 131.199 241.864C131.785 239.811 132.079 237.523 132.079 235C132.079 231.597 131.58 228.664 130.583 226.2C129.585 223.677 128.148 221.741 126.271 220.392C124.393 219.043 122.135 218.368 119.495 218.368C117.559 218.368 115.799 218.749 114.215 219.512C112.631 220.275 111.281 221.389 110.167 222.856C109.111 224.323 108.289 226.083 107.703 228.136C107.116 230.131 106.823 232.419 106.823 235C106.823 238.403 107.321 241.365 108.319 243.888C109.375 246.352 110.841 248.259 112.719 249.608C114.596 250.957 116.855 251.632 119.495 251.632ZM143.042 223.12C140.52 223.12 137.968 222.827 135.386 222.24C132.805 221.595 129.666 220.275 125.97 218.28C125.208 217.869 124.797 217.341 124.738 216.696C124.621 215.992 124.738 215.347 125.09 214.76C125.442 214.173 125.941 213.733 126.586 213.44C127.173 213.147 127.789 213.176 128.434 213.528C130.957 214.995 133.538 215.963 136.178 216.432C138.76 216.843 141.136 217.048 143.306 217.048C145.066 217.048 146.826 216.755 148.586 216.168C150.405 215.523 152.048 214.584 153.514 213.352C155.04 212.061 156.242 210.448 157.122 208.512C157.533 207.632 158.178 207.221 159.058 207.28C159.938 207.28 160.672 207.573 161.258 208.16C161.845 208.747 161.904 209.509 161.434 210.448C159.557 213.909 157.562 216.579 155.45 218.456C153.397 220.275 151.314 221.507 149.202 222.152C147.09 222.797 145.037 223.12 143.042 223.12ZM188.274 258.496C186.104 258.496 184.109 258.115 182.29 257.352C180.472 256.648 178.653 255.504 176.834 253.92C175.016 252.277 173.05 250.107 170.938 247.408C168.885 244.651 166.509 241.307 163.81 237.376V256.032C163.81 256.795 163.488 257.352 162.842 257.704C162.197 258.115 161.258 258.32 160.026 258.32C158.736 258.32 157.768 258.115 157.122 257.704C156.536 257.352 156.242 256.795 156.242 256.032V175.424C156.242 174.661 156.536 174.104 157.122 173.752C157.768 173.341 158.736 173.136 160.026 173.136C160.848 173.136 161.522 173.224 162.05 173.4C162.637 173.576 163.077 173.84 163.37 174.192C163.664 174.485 163.81 174.896 163.81 175.424V220.48C165.805 217.899 168.093 215.757 170.674 214.056C173.256 212.296 175.954 211.416 178.77 211.416C182.232 211.416 184.754 212.355 186.338 214.232C187.922 216.051 188.714 218.251 188.714 220.832C188.714 222.416 188.45 223.941 187.922 225.408C187.453 226.816 186.72 228.136 185.722 229.368C184.784 230.6 183.64 231.715 182.29 232.712C181 233.651 179.504 234.472 177.802 235.176C176.16 235.88 174.4 236.408 172.522 236.76C174.517 239.576 176.277 241.952 177.802 243.888C179.328 245.824 180.706 247.379 181.938 248.552C183.229 249.725 184.52 250.576 185.81 251.104C187.101 251.632 188.48 251.896 189.946 251.896C190.768 251.896 191.325 252.248 191.618 252.952C191.97 253.597 192.088 254.36 191.97 255.24C191.853 256.061 191.472 256.795 190.826 257.44C190.24 258.144 189.389 258.496 188.274 258.496ZM163.81 232.888C166.333 232.712 168.65 232.331 170.762 231.744C172.874 231.099 174.693 230.307 176.218 229.368C177.802 228.371 179.005 227.256 179.826 226.024C180.706 224.792 181.146 223.501 181.146 222.152C181.146 220.803 180.794 219.864 180.09 219.336C179.386 218.749 178.506 218.456 177.45 218.456C176.16 218.456 174.722 218.925 173.138 219.864C171.613 220.744 170.058 222.005 168.474 223.648C166.89 225.291 165.336 227.227 163.81 229.456V232.888ZM188.314 258.496C187.493 258.496 186.906 258.144 186.554 257.44C186.143 256.795 185.997 256.061 186.114 255.24C186.173 254.36 186.525 253.597 187.17 252.952C187.815 252.248 188.754 251.896 189.986 251.896C191.922 251.896 193.711 251.573 195.354 250.928C197.055 250.283 198.581 249.403 199.93 248.288C201.279 247.115 202.482 245.736 203.538 244.152C204.594 242.568 205.474 240.867 206.178 239.048C206.53 238.168 207.029 237.787 207.674 237.904C208.319 237.963 208.877 238.285 209.346 238.872C209.874 239.4 210.05 239.987 209.874 240.632C208.994 243.448 207.85 245.971 206.442 248.2C205.093 250.371 203.509 252.248 201.69 253.832C199.93 255.357 197.906 256.501 195.618 257.264C193.389 258.085 190.954 258.496 188.314 258.496ZM216.914 258.496C214.919 258.496 213.189 258.203 211.722 257.616C210.255 257.088 209.053 256.267 208.114 255.152C207.175 253.979 206.471 252.541 206.002 250.84C205.591 249.08 205.386 247.027 205.386 244.68V175.424C205.386 174.661 205.679 174.104 206.266 173.752C206.911 173.341 207.85 173.136 209.082 173.136C210.373 173.136 211.341 173.341 211.986 173.752C212.631 174.104 212.954 174.661 212.954 175.424V244.68C212.954 247.32 213.335 249.197 214.098 250.312C214.919 251.368 216.415 251.896 218.586 251.896C219.407 251.896 220.023 252.248 220.434 252.952C220.845 253.597 220.991 254.36 220.874 255.24C220.815 256.061 220.463 256.795 219.818 257.44C219.173 258.144 218.205 258.496 216.914 258.496ZM216.845 258.496C216.024 258.496 215.437 258.144 215.085 257.44C214.675 256.795 214.528 256.061 214.645 255.24C214.704 254.36 215.056 253.597 215.701 252.952C216.347 252.248 217.285 251.896 218.517 251.896C219.749 251.896 221.187 251.603 222.829 251.016C224.413 250.371 226.115 249.52 227.933 248.464C229.752 247.349 231.571 246.088 233.389 244.68C234.152 244.035 234.856 243.829 235.501 244.064C236.205 244.24 236.763 244.651 237.173 245.296C237.584 245.941 237.76 246.675 237.701 247.496C237.701 248.259 237.349 248.904 236.645 249.432C234.357 251.192 232.011 252.776 229.605 254.184C227.259 255.533 225 256.589 222.829 257.352C220.6 258.115 218.605 258.496 216.845 258.496ZM233.477 244.768C237.056 242.304 240.048 240.075 242.453 238.08C244.859 236.085 246.765 234.237 248.173 232.536C249.64 230.835 250.696 229.221 251.341 227.696C251.987 226.171 252.309 224.704 252.309 223.296C252.309 221.536 251.84 220.275 250.901 219.512C249.963 218.749 248.731 218.368 247.205 218.368C245.797 218.368 244.477 218.779 243.245 219.6C242.013 220.363 240.899 221.448 239.901 222.856C238.963 224.264 238.229 225.936 237.701 227.872C237.173 229.808 236.909 231.92 236.909 234.208C236.909 237.2 237.32 239.811 238.141 242.04C238.963 244.269 240.107 246.147 241.573 247.672C243.04 249.139 244.741 250.253 246.677 251.016C248.613 251.72 250.725 252.072 253.013 252.072C253.893 252.072 254.539 252.395 254.949 253.04C255.36 253.685 255.565 254.448 255.565 255.328C255.565 256.149 255.36 256.883 254.949 257.528C254.539 258.173 253.893 258.496 253.013 258.496C247.557 258.496 243.069 257.469 239.549 255.416C236.029 253.304 233.389 250.459 231.629 246.88C229.928 243.243 229.077 239.136 229.077 234.56C229.077 231.04 229.547 227.872 230.485 225.056C231.424 222.181 232.744 219.717 234.445 217.664C236.147 215.611 238.141 214.056 240.429 213C242.717 211.885 245.24 211.328 247.997 211.328C250.403 211.328 252.485 211.827 254.245 212.824C256.064 213.821 257.472 215.171 258.469 216.872C259.525 218.573 260.053 220.539 260.053 222.768C260.053 224.528 259.731 226.288 259.085 228.048C258.44 229.808 257.355 231.656 255.829 233.592C254.304 235.528 252.251 237.611 249.669 239.84C247.088 242.069 243.891 244.533 240.077 247.232L233.477 244.768ZM253.038 258.496C251.923 258.496 251.102 258.173 250.574 257.528C250.046 256.883 249.782 256.149 249.782 255.328C249.782 254.448 250.046 253.685 250.574 253.04C251.102 252.395 251.923 252.072 253.038 252.072C256.793 252.072 259.814 251.427 262.102 250.136C264.39 248.845 266.179 247.144 267.47 245.032C268.761 242.861 269.729 240.485 270.374 237.904C271.019 235.264 271.547 232.595 271.958 229.896C272.31 227.549 272.75 225.291 273.278 223.12C273.806 220.949 274.51 219.013 275.39 217.312C276.329 215.552 277.59 214.173 279.174 213.176C280.817 212.179 282.899 211.68 285.422 211.68C285.95 211.68 286.331 212.032 286.566 212.736C286.859 213.381 286.977 214.144 286.918 215.024C286.918 215.845 286.771 216.608 286.478 217.312C286.185 217.957 285.774 218.28 285.246 218.28C284.073 218.28 283.105 218.573 282.342 219.16C281.579 219.747 280.963 220.597 280.494 221.712C280.025 222.827 279.614 224.205 279.262 225.848C278.91 227.432 278.558 229.28 278.206 231.392C277.795 233.739 277.297 236.173 276.71 238.696C276.182 241.219 275.39 243.653 274.334 246C273.337 248.347 271.929 250.459 270.11 252.336C268.35 254.213 266.091 255.709 263.334 256.824C260.577 257.939 257.145 258.496 253.038 258.496ZM323.262 258.496C321.267 258.496 319.537 258.203 318.07 257.616C316.603 257.088 315.401 256.267 314.462 255.152C313.523 253.979 312.819 252.541 312.35 250.84C311.939 249.08 311.734 247.027 311.734 244.68V228.312C311.734 226.259 311.411 224.499 310.766 223.032C310.179 221.507 309.241 220.363 307.95 219.6C306.659 218.779 304.929 218.368 302.758 218.368C301.526 218.368 300.235 218.544 298.886 218.896C297.595 219.248 296.334 219.835 295.102 220.656C293.929 221.419 292.785 222.445 291.67 223.736C290.614 225.027 289.675 226.611 288.854 228.488V256.032C288.854 256.795 288.531 257.352 287.886 257.704C287.241 258.115 286.273 258.32 284.982 258.32C283.75 258.32 282.811 258.115 282.166 257.704C281.579 257.352 281.286 256.795 281.286 256.032V224.528C281.286 222.064 280.934 220.421 280.23 219.6C279.526 218.72 278.265 218.28 276.446 218.28C275.566 218.28 274.921 217.957 274.51 217.312C274.099 216.608 273.894 215.845 273.894 215.024C273.894 214.144 274.129 213.381 274.598 212.736C275.067 212.032 275.742 211.68 276.622 211.68C278.206 211.68 279.614 211.856 280.846 212.208C282.137 212.501 283.251 213 284.19 213.704C285.187 214.349 286.009 215.2 286.654 216.256C287.299 217.253 287.798 218.456 288.15 219.864L288.326 220.568C289.147 219.16 290.115 217.899 291.23 216.784C292.345 215.669 293.547 214.701 294.838 213.88C296.187 213.059 297.595 212.443 299.062 212.032C300.587 211.563 302.171 211.328 303.814 211.328C306.865 211.328 309.534 211.885 311.822 213C314.169 214.115 315.987 215.875 317.278 218.28C318.627 220.627 319.302 223.736 319.302 227.608V244.68C319.302 247.32 319.683 249.197 320.446 250.312C321.267 251.368 322.763 251.896 324.934 251.896C325.755 251.896 326.371 252.248 326.782 252.952C327.193 253.597 327.339 254.36 327.222 255.24C327.163 256.061 326.811 256.795 326.166 257.44C325.521 258.144 324.553 258.496 323.262 258.496ZM323.236 258.496C322.415 258.496 321.828 258.144 321.476 257.44C321.065 256.795 320.919 256.061 321.036 255.24C321.095 254.36 321.447 253.597 322.092 252.952C322.737 252.248 323.676 251.896 324.908 251.896C326.668 251.896 328.252 251.661 329.66 251.192C331.009 250.723 332.183 250.019 333.18 249.08C334.177 248.141 334.969 246.968 335.556 245.56C336.201 244.152 336.641 242.509 336.876 240.632C336.993 239.752 337.433 239.195 338.196 238.96C338.959 238.667 339.692 238.667 340.396 238.96C341.159 239.195 341.481 239.752 341.364 240.632C341.129 243.741 340.513 246.44 339.516 248.728C338.519 250.957 337.228 252.805 335.644 254.272C334.06 255.68 332.212 256.736 330.1 257.44C328.047 258.144 325.759 258.496 323.236 258.496ZM356.06 297.216C352.129 297.216 348.756 296.453 345.94 294.928C343.124 293.403 340.953 291.584 339.428 289.472C338.9 288.651 338.665 287.829 338.724 287.008C338.841 286.187 339.487 285.336 340.66 284.456C341.775 283.635 342.625 283.283 343.212 283.4C343.857 283.517 344.561 283.957 345.324 284.72C347.143 286.656 348.903 288.064 350.604 288.944C352.305 289.883 354.241 290.352 356.412 290.352C358.759 290.352 360.783 289.853 362.484 288.856C364.185 287.917 365.476 286.363 366.356 284.192C367.295 282.021 367.764 279.117 367.764 275.48V250.4C366.415 252.571 364.919 254.243 363.276 255.416C361.692 256.589 360.079 257.381 358.436 257.792C356.852 258.261 355.268 258.496 353.684 258.496C350.34 258.496 347.377 257.704 344.796 256.12C342.215 254.477 340.191 252.013 338.724 248.728C337.257 245.443 336.524 241.307 336.524 236.32C336.524 233.269 336.788 230.453 337.316 227.872C337.903 225.291 338.753 222.973 339.868 220.92C340.983 218.867 342.332 217.136 343.916 215.728C345.5 214.32 347.319 213.235 349.372 212.472C351.425 211.709 353.684 211.328 356.148 211.328C358.025 211.328 359.961 211.592 361.956 212.12C364.009 212.648 365.945 213.411 367.764 214.408V213.968C367.764 213.205 368.057 212.648 368.644 212.296C369.231 211.885 370.169 211.68 371.46 211.68C372.751 211.68 373.719 211.885 374.364 212.296C375.009 212.648 375.332 213.205 375.332 213.968V275.744C375.332 280.555 374.54 284.544 372.956 287.712C371.372 290.939 369.143 293.315 366.268 294.84C363.393 296.424 359.991 297.216 356.06 297.216ZM354.74 251.456C356.441 251.456 358.055 251.163 359.58 250.576C361.164 249.931 362.631 248.933 363.98 247.584C365.388 246.235 366.649 244.475 367.764 242.304V221.536C365.945 220.363 364.156 219.541 362.396 219.072C360.636 218.544 358.817 218.28 356.94 218.28C355.415 218.28 354.007 218.515 352.716 218.984C351.425 219.453 350.252 220.157 349.196 221.096C348.14 222.035 347.231 223.208 346.468 224.616C345.764 226.024 345.207 227.667 344.796 229.544C344.444 231.421 344.268 233.563 344.268 235.968C344.268 239.195 344.649 241.981 345.412 244.328C346.175 246.616 347.319 248.376 348.844 249.608C350.428 250.84 352.393 251.456 354.74 251.456Z" fill="white"/>
</svg>
